<?xml version="1.0" standalone="no"?><!DOCTYPE svg PUBLIC "-//W3C//DTD SVG 1.1//EN" "http://www.w3.org/Graphics/SVG/1.1/DTD/svg11.dtd"><svg class="icon" width="200px" height="200.00px" viewBox="0 0 1024 1024" version="1.1" xmlns="http://www.w3.org/2000/svg"><path fill="#1296db" d="M828.1 332h-80a4 4 0 0 0-4 4v352a4 4 0 0 0 4 4h80a4 4 0 0 0 4-4V336a4 4 0 0 0-4-4zM428.6 496.4L161.5 282.1a20 20 0 0 0-32.5 15.6v428.6a20 20 0 0 0 32.5 15.6l267.1-214.3a20.1 20.1 0 0 0 0-31.2z m307 0l-267-214.3c-13.1-10.5-32.6-1.2-32.6 15.6v428.6c0 16.8 19.5 26.1 32.6 15.6l267-214.3a20 20 0 0 0 0-31.2z" /></svg>