<?xml version="1.0" standalone="no"?><!DOCTYPE svg PUBLIC "-//W3C//DTD SVG 1.1//EN" "http://www.w3.org/Graphics/SVG/1.1/DTD/svg11.dtd"><svg class="icon" width="200px" height="200.00px" viewBox="0 0 1024 1024" version="1.1" xmlns="http://www.w3.org/2000/svg"><path fill="#1296db" d="M1002.08 751.616V284.32c0-24.224-16.928-49.568-42.08-49.568h-64l1.152-6.4c0-31.328-26.016-57.6-58.528-57.6H186.432c-31.936 0-58.4 31.968-58.4 64l-0.224-0.96H67.168c-25.152 0-45.216 20.288-45.216 44.512v467.328H21.344c0 24.8 20.64 44.704 45.312 44.704h61.12v5.184c0 31.488 26.016 57.856 58.656 57.856h652.832c31.648 0 56.288-10.912 56.736-42.592h64c24.672 0 42.656-34.336 42.656-59.104h-0.608zM128 746.72H64V277.376h64v469.344z m725.344 42.688c0 6.432-14.848 21.344-21.344 21.344H192c-6.496 0-21.344-14.848-21.344-21.344V234.752c0-6.368 9.248-18.56 15.744-18.56L192 213.408h640c6.432 0 21.344 14.944 21.344 21.344v554.656zM960 768.064h-64V277.408l60.832-1.984c4.96 0 3.168-2.944 3.168 1.984v469.344c0 4.96 5.024 21.344 0 21.344z m-547.552-271.904c43.936 0 79.648-34.784 79.648-77.472 0-42.752-35.712-77.472-79.648-77.472S332.8 375.936 332.8 418.688c-0.032 42.72 35.712 77.472 79.648 77.472z m0-116.224c21.952 0 39.84 17.376 39.84 38.752 0 21.344-17.888 38.752-39.84 38.752s-39.84-17.408-39.84-38.752c0-21.408 17.888-38.752 39.84-38.752z m373.472 58.688c-95.904 23.328-137.728 87.776-168.256 134.816-24.224 37.28-39.072 58.336-65.12 58.336h-0.032c-35.456 0-57.12-14.272-80.032-28.16-24.352-14.752-49.536-29.952-88.64-29.952-75.648 0-156.896 93.28-165.92 103.904l-4.576 51.072c0 10.72 8.928 18.112 19.936 18.112h557.504c10.976 0 19.904-7.392 19.904-18.112v-271.2c0-5.984-2.848-11.616-7.648-15.296s-11.136-4.992-17.088-3.52z m-15.072 268.864H253.152c24.864-27.744 85.28-95.072 130.656-95.072 27.744 0 46.24 11.168 67.616 24.128 25.152 15.168 53.632 32.416 99.712 33.952l2.944 0.064c47.648 0 71.712-37.12 97.248-76.416 26.656-41.088 56.48-79.104 119.52-102.496v215.84z" /></svg>