<?xml version="1.0" standalone="no"?><!DOCTYPE svg PUBLIC "-//W3C//DTD SVG 1.1//EN" "http://www.w3.org/Graphics/SVG/1.1/DTD/svg11.dtd"><svg class="icon" width="200px" height="200.00px" viewBox="0 0 1024 1024" version="1.1" xmlns="http://www.w3.org/2000/svg"><path d="M797.377049 876.27541h-738.622951c-28.537705 0-50.360656-21.822951-50.360655-50.360656v-738.622951c0-28.537705 21.822951-50.360656 50.360655-50.360655h738.622951c28.537705 0 50.360656 21.822951 50.360656 50.360655v738.622951c0 28.537705-21.822951 50.360656-50.360656 50.360656z" fill="#B0BEC5" /><path d="M864.52459 876.27541h-738.622951c-28.537705 0-50.360656-21.822951-50.360655-50.360656v-738.622951c0-28.537705 21.822951-50.360656 50.360655-50.360655h738.622951c28.537705 0 50.360656 21.822951 50.360656 50.360655v738.622951c0 28.537705-21.822951 50.360656-50.360656 50.360656z" fill="#CFD8DC" /><path d="M75.540984 198.085246h839.344262v520.393443h-839.344262z" fill="#FFA726" /><path d="M188.013115 114.15082m-30.216394 0a30.216393 30.216393 0 1 0 60.432787 0 30.216393 30.216393 0 1 0-60.432787 0Z" fill="#CFD8DC" /><path d="M282.019672 114.15082m-30.216393 0a30.216393 30.216393 0 1 0 60.432787 0 30.216393 30.216393 0 1 0-60.432787 0Z" fill="#CFD8DC" /><path d="M372.668852 114.15082m-30.216393 0a30.216393 30.216393 0 1 0 60.432787 0 30.216393 30.216393 0 1 0-60.432787 0Z" fill="#CFD8DC" /><path d="M402.045902 381.901639v201.442623h-201.442623v-201.442623z" fill="#4DD0E1" /><path d="M402.045902 583.344262v201.442623h-201.442623v-201.442623z" fill="#26C6DA" /><path d="M402.045902 784.786885v201.442623h-201.442623v-201.442623z" fill="#00ACC1" /><path d="M1000.498361 119.186885c20.144262 20.144262 20.144262 52.039344 0 70.504918L679.868852 512l-70.504918-70.504918L929.993443 119.186885c20.144262-18.465574 50.360656-18.465574 70.504918 0z" fill="#546E7A" /><path d="M609.363934 439.816393l70.504918 70.504918-35.252459 35.252459c-20.144262 20.144262-52.039344 20.144262-70.504918 0-20.144262-20.144262-20.144262-52.039344 0-70.504918l35.252459-35.252459z" fill="#CFD8DC" /><path d="M574.111475 547.252459c-20.144262-20.144262-52.039344-20.144262-70.504918 0-20.144262 20.144262-20.144262 52.039344 0 70.504918l-58.754098 58.754098h67.147541l63.790164-58.754098c16.786885-18.465574 16.786885-50.360656-1.678689-70.504918z" fill="#546E7A" /></svg>