<?xml version="1.0" standalone="no"?><!DOCTYPE svg PUBLIC "-//W3C//DTD SVG 1.1//EN" "http://www.w3.org/Graphics/SVG/1.1/DTD/svg11.dtd"><svg class="icon" width="200px" height="200.00px" viewBox="0 0 1024 1024" version="1.1" xmlns="http://www.w3.org/2000/svg"><path fill="#1296db" d="M869.895582 93.511486h-99.298774c-9.199886 0-16.799793-7.499907-16.799793-16.799793V32.512239c0-17.299786-13.599832-32.099604-30.999617-32.499599C704.697621-0.487354 689.997803 13.912468 689.997803 31.912246v44.899446c0 9.199886-7.499907 16.799793-16.799793 16.799792H354.101949c-9.199886 0-16.799793-7.499907-16.799793-16.799792V32.512239c0-17.299786-13.599832-32.099604-30.999617-32.499599-18.099777-0.499994-32.699596 13.899828-32.699596 31.899606v44.899446c0 9.199886-7.499907 16.799793-16.799793 16.799792H154.104418c-80.999-0.099999-146.698189 65.499191-146.698189 146.598191v637.092136c0 80.999 65.59919 146.698189 146.698189 146.698189h715.591167c80.999 0 146.698189-65.59919 146.698189-146.698189V240.209675c0.199998-81.098999-65.499191-146.698189-146.498192-146.698189zM71.205441 240.209675c0-45.899433 37.199541-82.998975 82.998976-82.998976h102.598733c9.199886 0 16.799793 7.499907 16.799793 16.799793v44.299453c0 17.299786 13.599832 32.099604 30.999617 32.499599 18.099777 0.499994 32.699596-13.899828 32.699596-31.899606V174.010492c0-9.199886 7.499907-16.799793 16.799793-16.799793h319.19606c9.199886 0 16.799793 7.499907 16.799793 16.799793v44.299453c0 17.299786 13.599832 32.099604 30.999617 32.499599 18.099777 0.499994 32.699596-13.899828 32.699596-31.899606V174.010492c0-9.199886 7.499907-16.799793 16.799793-16.799793h99.298774c45.899433 0 82.998975 37.199541 82.998976 82.998976v48.199405c0 12.099851-9.799879 21.89973-21.89973 21.89973H93.105171c-12.099851 0-21.89973-9.799879-21.89973-21.89973v-48.199405z m881.689117 637.192135c-0.099999 45.899433-37.29954 82.998975-83.098975 82.998975H154.104418c-45.799435 0-82.998975-37.199541-82.998976-82.998975V395.907753c0-12.099851 9.799879-21.89973 21.89973-21.89973h837.989656c12.099851 0 21.89973 9.799879 21.89973 21.89973v481.494057z"  /><path fill="#1296db" d="M399.40139 633.004826h18.499772c3.699954-43.099468 30.199627-64.699201 79.499018-64.699201h84.998951c-80.099011 97.298799-119.498525 168.797916-118.198541 214.297355-1.299984 32.099604 10.999864 47.999408 36.999543 47.999407 25.799682 1.199985 38.799521-15.39981 38.799521-49.899384-3.699954-82.498982 21.599733-158.298046 75.699066-227.197195 3.699954-4.89994 6.799916-9.199886 9.199886-12.99984v-35.099567L405.001321 503.606424 399.40139 633.004826z"  /></svg>