<?xml version="1.0" standalone="no"?><!DOCTYPE svg PUBLIC "-//W3C//DTD SVG 1.1//EN" "http://www.w3.org/Graphics/SVG/1.1/DTD/svg11.dtd"><svg class="icon" width="200px" height="200.00px" viewBox="0 0 1024 1024" version="1.1" xmlns="http://www.w3.org/2000/svg"><path fill="#1296db" d="M787.692308 157.538462a78.769231 78.769231 0 0 1 78.76923 78.76923v551.384616a78.769231 78.769231 0 0 1-78.76923 78.76923H236.307692a78.769231 78.769231 0 0 1-78.76923-78.76923V236.307692a78.769231 78.769231 0 0 1 78.76923-78.76923h551.384616z m-291.485539 31.468307L236.307692 189.046154a47.261538 47.261538 0 0 0-47.02523 42.417231L189.046154 236.307692v551.384616a47.261538 47.261538 0 0 0 42.417231 47.02523L236.307692 834.953846h259.899077V189.006769zM787.692308 189.046154l-259.977846-0.039385V834.953846H787.692308a47.261538 47.261538 0 0 0 47.02523-42.417231L834.953846 787.692308V236.307692a47.261538 47.261538 0 0 0-42.417231-47.02523L787.692308 189.046154z m-384.748308 234.220308a15.753846 15.753846 0 0 1 2.008615 19.810461l-1.96923 2.481231-65.61477 65.536 67.465847 67.544615a15.753846 15.753846 0 0 1 2.008615 19.771077l-2.008615 2.481231a15.753846 15.753846 0 0 1-19.810462 2.008615l-2.481231-1.96923-78.611692-78.651077a15.753846 15.753846 0 0 1-2.008615-19.810462l2.008615-2.481231 76.721231-76.72123a15.753846 15.753846 0 0 1 22.291692 0z m218.269538 0a15.753846 15.753846 0 0 1 22.291693 0l76.721231 76.72123 2.008615 2.481231a15.753846 15.753846 0 0 1-1.969231 19.810462l-78.651077 78.611692-2.481231 2.008615a15.753846 15.753846 0 0 1-19.810461-1.96923l-1.969231-2.520616a15.753846 15.753846 0 0 1 1.969231-19.771077l67.505231-67.544615-65.61477-65.536-2.008615-2.481231a15.753846 15.753846 0 0 1 2.008615-19.810461z"  /></svg>