<?xml version="1.0" standalone="no"?><!DOCTYPE svg PUBLIC "-//W3C//DTD SVG 1.1//EN" "http://www.w3.org/Graphics/SVG/1.1/DTD/svg11.dtd"><svg class="icon" width="200px" height="200.00px" viewBox="0 0 1024 1024" version="1.1" xmlns="http://www.w3.org/2000/svg"><path fill="#1296db" d="M917.824 229.056c-22.208-30.272-53.184-65.728-87.168-99.712S761.216 64.384 730.944 42.176C679.36 4.352 654.336 0 640 0H144C99.904 0 64 35.904 64 80v864c0 44.096 35.904 80 80 80h736c44.096 0 80-35.904 80-80V320c0-14.336-4.352-39.36-42.176-90.944z m-132.48-54.4c30.72 30.72 54.784 58.368 72.576 81.344h-153.984V102.08c22.976 17.792 50.688 41.856 81.344 72.576zM896 944c0 8.704-7.296 16-16 16H144a16.192 16.192 0 0 1-16-16V80c0-8.64 7.36-16 16-16H640v224a32 32 0 0 0 32 32H896v624z"  /></svg>