<?xml version="1.0" standalone="no"?><!DOCTYPE svg PUBLIC "-//W3C//DTD SVG 1.1//EN" "http://www.w3.org/Graphics/SVG/1.1/DTD/svg11.dtd"><svg class="icon" width="200px" height="200.00px" viewBox="0 0 1024 1024" version="1.1" xmlns="http://www.w3.org/2000/svg"><path fill="#333333" d="M136.533333 375.466667c-75.281067 0-136.533333 61.252267-136.533333 136.533333s61.252267 136.533333 136.533333 136.533333 136.533333-61.252267 136.533334-136.533333-61.252267-136.533333-136.533334-136.533333z m0 238.933333c-56.4736 0-102.4-45.9264-102.4-102.4s45.9264-102.4 102.4-102.4 102.4 45.9264 102.4 102.4-45.9264 102.4-102.4 102.4zM887.466667 375.466667c-75.281067 0-136.533333 61.252267-136.533334 136.533333s61.252267 136.533333 136.533334 136.533333 136.533333-61.252267 136.533333-136.533333-61.252267-136.533333-136.533333-136.533333z m0 238.933333c-56.4736 0-102.4-45.9264-102.4-102.4s45.9264-102.4 102.4-102.4 102.4 45.9264 102.4 102.4-45.9264 102.4-102.4 102.4zM512 375.466667c-75.281067 0-136.533333 61.252267-136.533333 136.533333s61.252267 136.533333 136.533333 136.533333 136.533333-61.252267 136.533333-136.533333-61.252267-136.533333-136.533333-136.533333z m0 238.933333c-56.4736 0-102.4-45.9264-102.4-102.4s45.9264-102.4 102.4-102.4 102.4 45.9264 102.4 102.4-45.9264 102.4-102.4 102.4z"  /></svg>