<?xml version="1.0" standalone="no"?><!DOCTYPE svg PUBLIC "-//W3C//DTD SVG 1.1//EN" "http://www.w3.org/Graphics/SVG/1.1/DTD/svg11.dtd"><svg class="icon" width="200px" height="200.00px" viewBox="0 0 1024 1024" version="1.1" xmlns="http://www.w3.org/2000/svg"><path fill="#1296db" d="M370.666667 906.666667m5.333333 0l272 0q5.333333 0 5.333333 5.333333l0 64q0 5.333333-5.333333 5.333333l-272 0q-5.333333 0-5.333333-5.333333l0-64q0-5.333333 5.333333-5.333333Z"  /><path fill="#1296db" d="M549.333333 108.8V48a5.333333 5.333333 0 0 0-5.333333-5.333333H480a5.333333 5.333333 0 0 0-5.333333 5.333333v60.8a5.333333 5.333333 0 0 1-4.693334 5.333333A341.333333 341.333333 0 0 0 170.666667 452.746667v387.68a5.333333 5.333333 0 0 0 5.333333 5.333333h672a5.333333 5.333333 0 0 0 5.333333-5.333333V452.746667a341.333333 341.333333 0 0 0-299.306666-338.72 5.333333 5.333333 0 0 1-4.693334-5.226667z m229.333334 520.96v136a5.333333 5.333333 0 0 1-5.333334 5.333333H250.666667a5.333333 5.333333 0 0 1-5.333334-5.333333V452.746667a266.666667 266.666667 0 1 1 533.333334 0z"  /></svg>