<?xml version="1.0" standalone="no"?><!DOCTYPE svg PUBLIC "-//W3C//DTD SVG 1.1//EN" "http://www.w3.org/Graphics/SVG/1.1/DTD/svg11.dtd"><svg class="icon" width="200px" height="199.80px" viewBox="0 0 1025 1024" version="1.1" xmlns="http://www.w3.org/2000/svg"><path fill="#1296db" d="M398.68309 919.361824c0 58.664396 47.406559 106.22702 105.886697 106.22702 58.481145 0 105.889718-47.562624 105.889718-106.22702l0-26.555245L398.68309 892.806579 398.68309 919.361824zM982.585337 786.581573l-106.225006 0L876.36033 388.235785c0-205.345523-166.471198-371.790543-371.790543-371.790543-205.318338 0-371.787522 166.44502-371.787522 371.790543l0 398.345788L26.556252 786.581573c-14.65301 0-26.556252 11.87807-26.556252 26.556252s11.903242 26.556252 26.556252 26.556252l956.030092 0c14.65301 0 26.558265-11.87807 26.558265-26.556252S997.238346 786.581573 982.585337 786.581573zM823.247827 786.581573 185.894768 786.581573 185.894768 388.235785c0-175.988154 142.662701-318.67804 318.675019-318.67804 176.015339 0 318.67804 142.690893 318.67804 318.67804L823.247827 786.581573z" /></svg>