<?xml version="1.0" standalone="no"?><!DOCTYPE svg PUBLIC "-//W3C//DTD SVG 1.1//EN" "http://www.w3.org/Graphics/SVG/1.1/DTD/svg11.dtd"><svg class="icon" width="200px" height="200.00px" viewBox="0 0 1024 1024" version="1.1" xmlns="http://www.w3.org/2000/svg"><path fill="#333333" d="M511.99 498.18H206.18c-15.51 0-29.49-9.34-35.41-23.67a38.297 38.297 0 0 1 8.31-41.77L484.9 126.92c14.97-14.97 39.23-14.97 54.21 0 14.97 14.97 14.97 39.24 0 54.21l-240.4 240.39h213.28c21.18 0 38.33 17.16 38.33 38.33 0.01 21.17-17.15 38.33-38.33 38.33z"  /><path fill="#333333" d="M817.82 498.18H511.99c-21.18 0-38.33-17.16-38.33-38.33 0-21.17 17.16-38.33 38.33-38.33h213.28L484.89 181.13c-14.97-14.97-14.97-39.24 0-54.21 14.97-14.97 39.23-14.97 54.21 0l305.83 305.82a38.317 38.317 0 0 1 8.31 41.78 38.323 38.323 0 0 1-35.42 23.66z"  /><path fill="#333333" d="M633.94 921.17H390.05c-19.92 0-36.22-16.3-36.22-36.22V496.07c0-19.92 16.3-36.22 36.22-36.22h243.89c19.92 0 36.22 16.3 36.22 36.22v388.87c0 19.93-16.3 36.23-36.22 36.23z"  /><path fill="#333333" d="M633.94 959.5H390.06c-41.12 0-74.56-33.44-74.56-74.55V496.07c0-41.11 33.44-74.56 74.56-74.56h243.89c41.12 0 74.56 33.45 74.56 74.56v388.87c-0.01 41.12-33.45 74.56-74.57 74.56z m-241.78-76.67h239.67V498.18H392.16v384.65z"  /><path fill="#333333" d="M817.82 141.17H206.18c-21.18 0-38.33-17.16-38.33-38.33S185 64.5 206.18 64.5h611.65c21.18 0 38.33 17.16 38.33 38.33s-17.16 38.34-38.34 38.34z"  /><path fill="#333333" d="M829.05 456.17H221.82l293.89-288.34h-6.11z"  /></svg>