<?xml version="1.0" standalone="no"?><!DOCTYPE svg PUBLIC "-//W3C//DTD SVG 1.1//EN" "http://www.w3.org/Graphics/SVG/1.1/DTD/svg11.dtd"><svg class="icon" width="200px" height="200.00px" viewBox="0 0 1024 1024" version="1.1" xmlns="http://www.w3.org/2000/svg"><path fill="#1296db" d="M144.2 874.6h735.5c3.4 0 6.2-2.8 6.2-6.2V389c0-12.2-9.9-22.2-22.2-22.2H160.2c-12.2 0-22.2 9.9-22.2 22.2v479.4c0 3.4 2.8 6.2 6.2 6.2z m76-447.8h583.6c12.2 0 22.2 9.9 22.2 22.2v359.4c0 3.4-2.8 6.2-6.2 6.2H643.6c-4.6 0-7.6-4.7-5.6-8.9 22.6-48.4 45.1-96.6 68-145 0.8-1.7 0.8-3.6 0-5.3l-0.6-1.2c-1-2.2-3.2-3.6-5.7-3.6H485.8c-3.2 0-5.8 2.4-6.2 5.5-2.4 21.6-4.6 46-9.1 73-0.6 3.8 2.3 7.3 6.1 7.3h6.3c2.5 0 4.8-1.5 5.8-3.9 14.2-34.5 17.6-39.3 53.7-39.3h113.5c4.6 0 7.6 4.7 5.6 8.9-16.2 34.6-34.4 71.6-53.8 109.1-1.1 2.1-3.2 3.4-5.5 3.4h-398c-3.4 0-6.2-2.8-6.2-6.2V449c0-12.3 9.9-22.2 22.2-22.2zM330 31.2h-21.6c-10.6 0-19.2 8.6-19.2 19.2V192c0 10.6 8.6 19.2 19.2 19.2H330c10.6 0 19.2-8.6 19.2-19.2V50.4c0-10.6-8.6-19.2-19.2-19.2zM715.5 31.2h-21.6c-10.6 0-19.2 8.6-19.2 19.2V192c0 10.6 8.6 19.2 19.2 19.2h21.6c10.6 0 19.2-8.6 19.2-19.2V50.4c0-10.6-8.6-19.2-19.2-19.2z"  /><path fill="#1296db" d="M790.2 91.2c-10.6 0-19.2 8.6-19.2 19.2v119.1c0 10.6-8.6 19.2-19.2 19.2h-94.1c-10.6 0-19.2-8.6-19.2-19.2v-119c0-10.6-8.6-19.2-19.2-19.2H404.7c-10.6 0-19.2 8.6-19.2 19.2v119c0 10.6-8.6 19.2-19.2 19.2h-94.1c-10.6 0-19.2-8.6-19.2-19.2v-119c0-10.6-8.6-19.2-19.2-19.2H0V968.5c0 13.4 10.9 24.3 24.3 24.3h975.3c13.4 0 24.3-10.9 24.3-24.3V91.2H790.2z m149.5 841.6H84.3c-13.4 0-24.3-10.9-24.3-24.3V308.7h0.2V170c0-10.6 8.6-19.2 19.2-19.2h94.1c10.6 0 19.2 8.6 19.2 19.2V289.4c0 10.6 8.6 19.2 19.2 19.2h214.6c10.6 0 19.2-8.6 19.2-19.2V170c0-10.6 8.6-19.2 19.2-19.2H559c10.6 0 19.2 8.6 19.2 19.2V289.4c0 10.6 8.6 19.2 19.2 19.2H812c10.6 0 19.2-8.6 19.2-19.2V170c0-10.6 8.6-19.2 19.2-19.2h94.1c10.6 0 19.2 8.6 19.2 19.2v138.6h0.2v599.8c0.1 13.5-10.8 24.4-24.2 24.4z"  /><path fill="#1296db" d="M403.8 721.3v-217c0-4.4-4.4-7.4-8.5-5.8-19.4 7.3-42.6 12.9-66 17-3 0.5-5.1 3.1-5.1 6.1 0 3.2 2.4 5.9 5.6 6.2l15.7 1.6c19.1 1.7 22.2 2.6 22.2 24.8v167c0 31.3-2.4 34.6-45.1 37.5-3.3 0.2-5.8 2.9-5.8 6.2v0.1c0 3.4 2.8 6.2 6.2 6.2h125.9c3.4 0 6.2-2.8 6.2-6.2v-0.1c0-3.3-2.6-6-5.8-6.2-43.1-2.8-45.5-5.7-45.5-37.4zM588.8 628.7c51.8 0 71.2-46.1 71.2-83.9 0-40.2-19.4-83.7-71.2-83.7-52.5 0-72.2 46.1-72.2 83.9-0.1 40.9 19.3 83.7 72.2 83.7z m0-158.6c30.8 0 39.4 38.1 39.4 74.6 0 36.3-8.3 74.9-39.4 74.9-30.4 0-40.1-38.9-40.1-75.1 0-36.3 7.9-74.4 40.1-74.4z"  /></svg>