<?xml version="1.0" standalone="no"?><!DOCTYPE svg PUBLIC "-//W3C//DTD SVG 1.1//EN" "http://www.w3.org/Graphics/SVG/1.1/DTD/svg11.dtd"><svg class="icon" width="200px" height="200.00px" viewBox="0 0 1024 1024" version="1.1" xmlns="http://www.w3.org/2000/svg"><path fill="#1296db" d="M787.692308 157.538462a78.769231 78.769231 0 0 1 78.76923 78.76923v551.384616a78.769231 78.769231 0 0 1-78.76923 78.76923H236.307692a78.769231 78.769231 0 0 1-78.76923-78.76923V236.307692a78.769231 78.769231 0 0 1 78.76923-78.76923h551.384616z m-295.384616 39.384615H236.307692a39.384615 39.384615 0 0 0-39.108923 34.776615L196.923077 236.307692v551.384616a39.384615 39.384615 0 0 0 34.776615 39.108923L236.307692 827.076923h256V196.923077zM787.692308 196.923077h-256v630.153846H787.692308a39.384615 39.384615 0 0 0 39.108923-34.776615L827.076923 787.692308V236.307692a39.384615 39.384615 0 0 0-34.776615-39.108923L787.692308 196.923077z m-381.952 223.547077a19.692308 19.692308 0 0 1 2.284307 25.127384l-2.284307 2.756924-62.818462 62.739692 64.708923 64.748308a19.692308 19.692308 0 0 1 2.244923 25.127384l-2.244923 2.717539a19.692308 19.692308 0 0 1-25.127384 2.284307l-2.756923-2.284307-78.611693-78.611693a19.692308 19.692308 0 0 1-2.244923-25.127384l2.244923-2.756923 76.760616-76.721231a19.692308 19.692308 0 0 1 27.844923 0z m212.676923 0a19.692308 19.692308 0 0 1 27.884307 0l76.721231 76.760615 2.284308 2.717539a19.692308 19.692308 0 0 1-2.284308 25.127384l-78.611692 78.611693-2.756923 2.284307a19.692308 19.692308 0 0 1-25.088-2.284307l-2.284308-2.756923a19.692308 19.692308 0 0 1 2.284308-25.088l64.669538-64.748308-62.818461-62.739692-2.244923-2.756924a19.692308 19.692308 0 0 1 2.244923-25.127384z"  /></svg>