<?xml version="1.0" standalone="no"?><!DOCTYPE svg PUBLIC "-//W3C//DTD SVG 1.1//EN" "http://www.w3.org/Graphics/SVG/1.1/DTD/svg11.dtd"><svg class="icon" width="200px" height="200.00px" viewBox="0 0 1024 1024" version="1.1" xmlns="http://www.w3.org/2000/svg"><path fill="#1296db" d="M751.616 167.936c-14.336 0-28.672 4.096-43.008 10.24l-339.968 167.936c-8.192 4.096-14.336 12.288-14.336 22.528l0 210.944c0 10.24 6.144 18.432 14.336 22.528l339.968 167.936c14.336 8.192 28.672 10.24 43.008 10.24l0 0c22.528 0 40.96-8.192 55.296-24.576 12.288-14.336 20.48-34.816 20.48-59.392L827.392 249.856C825.344 200.704 794.624 167.936 751.616 167.936L751.616 167.936zM774.144 710.656c0 8.192-2.048 16.384-6.144 20.48-2.048 2.048-4.096 4.096-8.192 4.096-4.096 0-8.192 0-16.384-4.096l-325.632-161.792c-8.192-4.096-14.336-14.336-14.336-22.528l0-143.36c0-10.24 6.144-18.432 14.336-22.528l325.632-161.792c8.192-4.096 14.336-4.096 16.384-4.096 12.288 0 14.336 12.288 14.336 22.528L774.144 710.656 774.144 710.656zM774.144 710.656M256 344.064c-12.288 0-20.48 10.24-20.48 20.48l0 217.088c0 12.288 10.24 20.48 20.48 20.48 12.288 0 20.48-10.24 20.48-20.48L276.48 366.592C276.48 354.304 268.288 344.064 256 344.064L256 344.064zM256 344.064" /></svg>