<?xml version="1.0" standalone="no"?><!DOCTYPE svg PUBLIC "-//W3C//DTD SVG 1.1//EN" "http://www.w3.org/Graphics/SVG/1.1/DTD/svg11.dtd"><svg class="icon" width="200px" height="200.00px" viewBox="0 0 1024 1024" version="1.1" xmlns="http://www.w3.org/2000/svg"><path fill="#1296db" d="M237.781333 178.346667l426.666667 298.666666a42.666667 42.666667 0 0 1 0 69.973334l-426.666667 298.666666A42.666667 42.666667 0 0 1 170.666667 810.666667V213.333333a42.666667 42.666667 0 0 1 67.114666-34.986666zM810.666667 170.666667a42.666667 42.666667 0 0 1 42.666666 42.666666v597.333334a42.666667 42.666667 0 0 1-85.333333 0V213.333333a42.666667 42.666667 0 0 1 42.666667-42.666666zM256 295.253333v433.493334L565.589333 512 256 295.253333z" /></svg>