<?xml version="1.0" standalone="no"?><!DOCTYPE svg PUBLIC "-//W3C//DTD SVG 1.1//EN" "http://www.w3.org/Graphics/SVG/1.1/DTD/svg11.dtd"><svg class="icon" width="200px" height="200.00px" viewBox="0 0 1024 1024" version="1.1" xmlns="http://www.w3.org/2000/svg"><path fill="#1296db" d="M319.015385 456.861538l167.384615-208.738461c11.815385-15.753846 35.446154-15.753846 47.261538 0l167.384616 210.707692c5.907692 7.876923 13.784615 13.784615 23.630769 13.784616h189.046154c15.753846 0 31.507692-13.784615 31.507692-29.538462V157.538462c0-43.323077-37.415385-78.769231-80.738461-78.769231H157.538462C114.215385 78.769231 78.769231 114.215385 78.769231 157.538462v285.538461c0 15.753846 13.784615 29.538462 29.538461 29.538462H295.384615c9.846154 0 17.723077-7.876923 23.63077-15.753847z m384 110.276924l-167.384616 208.738461c-11.815385 15.753846-35.446154 15.753846-47.261538 0l-167.384616-210.707692c-7.876923-5.907692-15.753846-13.784615-25.6-13.784616H108.307692c-15.753846 0-29.538462 13.784615-29.538461 29.538462V866.461538c0 43.323077 35.446154 78.769231 78.769231 78.769231h708.923076c43.323077 0 78.769231-35.446154 78.769231-78.769231V580.923077c0-15.753846-13.784615-29.538462-29.538461-29.538462h-189.046154c-9.846154 0-17.723077 7.876923-23.630769 15.753847z" /></svg>