<?xml version="1.0" standalone="no"?><!DOCTYPE svg PUBLIC "-//W3C//DTD SVG 1.1//EN" "http://www.w3.org/Graphics/SVG/1.1/DTD/svg11.dtd"><svg class="icon" width="200px" height="200.00px" viewBox="0 0 1024 1024" version="1.1" xmlns="http://www.w3.org/2000/svg"><path fill="#1296db" d="M896 192H128c-35.2 0-64 28.8-64 64v512c0 35.2 28.8 64 64 64h768c35.2 0 64-28.8 64-64V256c0-35.2-28.8-64-64-64zM384 608v-96h256v96h-256z m256 64v96h-256v-96h256zM128 512h192v96H128v-96z m576-160h192v96h-192v-96z m-64 96h-256v-96h256v96z m-320-96v96H128v-96h192z m384 160h192v96h-192v-96zM128 672h192v96H128v-96z m576 96v-96h192v96h-192z" /></svg>