<?xml version="1.0" standalone="no"?><!DOCTYPE svg PUBLIC "-//W3C//DTD SVG 1.1//EN" "http://www.w3.org/Graphics/SVG/1.1/DTD/svg11.dtd"><svg class="icon" width="200px" height="200.00px" viewBox="0 0 1024 1024" version="1.1" xmlns="http://www.w3.org/2000/svg"><path d="M768 528h-85.008L800 736h-90.352L832 944H192l122.352-208H224l117.008-208H256L512 16l256 512z" fill="#FFFFFF" /><path d="M515.616 120.752L536 80h8l208 432h-48L515.616 120.752zM624 528h48l103.392 192h-1.744l9.408 16H736l-112-208z m198.16 400h-48L656 736h48l118.16 192z" fill="#4D9D3C" /><path d="M515.616 120.752L711.696 528H624l112 208h-80l118.16 192H256l122.352-208H288l117.008-208H320L515.616 120.752z" fill="#5AB947" /><path d="M440 944h144v64h-144z" fill="#CCA733" /><path d="M752 512h-4.992H752z" fill="#4D9D3C" /><path d="M560 416m-48 0a48 48 0 1 0 96 0 48 48 0 1 0-96 0Z" fill="#D73636" /><path d="M432 640m-48 0a48 48 0 1 0 96 0 48 48 0 1 0-96 0Z" fill="#FFD140" /><path d="M592 848m-48 0a48 48 0 1 0 96 0 48 48 0 1 0-96 0Z" fill="#CBE9EA" /></svg>