<?xml version="1.0" standalone="no"?><!DOCTYPE svg PUBLIC "-//W3C//DTD SVG 1.1//EN" "http://www.w3.org/Graphics/SVG/1.1/DTD/svg11.dtd"><svg class="icon" width="200px" height="200.00px" viewBox="0 0 1024 1024" version="1.1" xmlns="http://www.w3.org/2000/svg"><path fill="#1296db" d="M208 200h608a104 104 0 0 1 104 104v416a104 104 0 0 1-104 104h-608a104 104 0 0 1-104-104v-416A104 104 0 0 1 208 200z m0 48A56 56 0 0 0 152 304v416c0 30.912 25.088 56 56 56h608a56 56 0 0 0 56-56v-416a56 56 0 0 0-56-56h-608z"  /><path fill="#1296db" d="M299.904 363.168a24 24 0 0 0-23.808 41.664l224 128a24 24 0 0 0 23.808 0l224-128a24 24 0 0 0-23.808-41.664L512 484.352 299.904 363.2z"  /></svg>